# xmcd CD database file
#
# Track frame offsets:
#	183
#	14690
#	27243
#	37315
#	49610
#	62098
#	73188
#	87068
#	98038
#	115038
#	126518
#	139928
#	148438
#	159753
#	171440
#	180463
#	191038
#	208125
#	220485
#	230018
#	243233
#	254165
#	266613
#
# Disc length: 3646 seconds
#
# Revision: 0
# Processed by: cddbd v1.5.1PL0 Copyright (c) Steve Scherf et al.
# Submitted via: CDex 1.51
#
DISCID=6a0e3c17
DTITLE=Nat King Cole - The Great Films and Shows Volume 2
DYEAR=1989
DGENRE=Jazz
TTITLE0=Don't Get Around Much Anymore
TTITLE1=I Should Care
TTITLE2=Just One Of Those Things
TTITLE3=The Party's Over
TTITLE4=The Song Is Ended (But The Melody Lingers On)
TTITLE5=Bidin' My Time
TTITLE6=Ebony Rhapsody
TTITLE7=Let's Face The Music and Dance
TTITLE8=Cold Cold Heart
TTITLE9=Lover Come Back To Me
TTITLE10=Who's Sorry Now
TTITLE11=Almost Like Being In Love
TTITLE12=This Can't Be Love
TTITLE13=You Stepped Out Of A Dream
TTITLE14=The Best Thing For You
TTITLE15=For You
TTITLE16=How Little We Know
TTITLE17=Like Someone In Love
TTITLE18=Should I
TTITLE19=Beale Street Blues
TTITLE20=St Louis Blues
TTITLE21=Ballad of Cat Ballou (with Stubby Kaye)
TTITLE22=In The Good Old Summertime
EXTD=YEAR: 1989
EXTT0=
EXTT1=
EXTT2=
EXTT3=
EXTT4=
EXTT5=
EXTT6=
EXTT7=
EXTT8=
EXTT9=
EXTT10=
EXTT11=
EXTT12=
EXTT13=
EXTT14=
EXTT15=
EXTT16=
EXTT17=
EXTT18=
EXTT19=
EXTT20=
EXTT21=
EXTT22=
PLAYORDER=
